<?xml version="1.0" standalone="no"?>
<!DOCTYPE svg PUBLIC "-//W3C//DTD SVG 20010904//EN"
 "http://www.w3.org/TR/2001/REC-SVG-20010904/DTD/svg10.dtd">
<svg version="1.0" xmlns="http://www.w3.org/2000/svg"
 width="250.000000pt" height="250.000000pt" viewBox="0 0 250.000000 250.000000"
 preserveAspectRatio="xMidYMid meet">
<metadata>
Created by potrace 1.14, written by Peter Selinger 2001-2017
</metadata>
<g transform="translate(0.000000,250.000000) scale(0.100000,-0.100000)"
fill="#000000" stroke="none">
<path d="M760 2484 c-36 -8 -74 -16 -85 -18 -75 -15 -233 -97 -320 -166 -134
-107 -232 -243 -294 -411 -48 -128 -51 -164 -48 -664 3 -533 2 -522 86 -700
129 -271 387 -465 681 -513 57 -9 889 -9 952 0 312 46 599 279 713 581 53 141
54 158 54 658 1 462 0 466 -24 557 -88 330 -328 572 -662 664 -74 21 -100 22
-533 24 -361 2 -468 -1 -520 -12z m157 -538 c69 -35 67 -27 73 -466 5 -381 6
-396 27 -435 38 -70 107 -124 183 -143 161 -39 321 88 322 255 1 98 -59 201
-140 238 -20 10 -51 24 -69 32 -42 19 -55 56 -57 160 -2 105 9 147 43 169 83
55 317 -49 438 -196 261 -315 164 -775 -203 -963 -51 -26 -179 -57 -251 -61
-256 -12 -527 171 -613 415 -34 97 -35 115 -35 526 0 388 1 402 20 429 34 45
74 60 156 59 47 -1 86 -8 106 -19z"/>
</g>
</svg>
